<?xml version="1.0" encoding="UTF-8"?>
<svg id="Layer_1" data-name="Layer 1" xmlns="http://www.w3.org/2000/svg" version="1.1" xmlns:xlink="http://www.w3.org/1999/xlink" viewBox="0 0 1920 1080">
  <defs>
    <style>
      .cls-1 {
        fill: #fff;
      }

      .cls-1, .cls-2 {
        stroke: #000;
      }

      .cls-1, .cls-2, .cls-3 {
        stroke-miterlimit: 10;
      }

      .cls-2, .cls-3 {
        fill: none;
      }

      .cls-3 {
        stroke: #231f20;
      }
    </style>
  </defs>
  <image width="874" height="682" transform="translate(632 284) scale(.8)" xlink:href="baltimore_map_yay-1.png"/>
  <path class="cls-3" d="M1056.5,646.1l3.4,6.8,8.5-7.4-47.1-9.1-2.3,4h-27.2l-18.7-2.8-13.4,2.8-18.3-5.1-38-74.8c6.3-9.3,16.9-21.3,32.9-25.5,3.9-1,12.5-2.7,47.1,5.7,34.5,8.3,40.3,13.4,51,9.1,10.3-4.2,8.4-10.5,26.1-23.8,17-12.8,21.7-9.3,27.2-17.6,12.2-18.3,0-51.6,0-51.6h0l27.2-40.2,71.4-47.6,40.8-52.7,19.8-22.1,11.9-10.1"/>
  <polyline class="cls-3" points="903.4 560.5 888.1 579.8 864.3 588.3 851.8 574.4"/>
  <polyline class="cls-3" points="900.8 563.9 862.6 546.1 839.4 517.5 825.8 507.8 809.3 514 795.7 511.2 773 493.1 764.5 493.1 725.4 524.2 725.4 546.9 719.2 563.9 700.5 588.3 692 610.4 673.8 648.3 652.9 681.3 632 719.8"/>
  <polyline class="cls-3" points="960.2 535.8 956.2 563.9 943.7 577 939.2 600.8 931.4 615.7 913.1 626.9 887 646.7 863.3 658 846.7 685.3 834.8 703.4 817.3 724.4 804.8 751 787.8 781.1 775.3 795.5"/>
  <polyline class="cls-3" points="951.1 569.2 968.1 581.5 993.6 581.5 1027 581.5 1049.7 540.7 1062.8 524.2"/>
  <polyline class="cls-2" points="883.6 648.3 897.5 670 911.4 693.2"/>
  <path class="cls-2" d="M828,507.8l-5.1-19.3-2.8-20.1v-39.5l-2.8-43.7v-21l17.6-19.3,27.8-7.4,25-9.1,18.7-10.2s8-7.2,16.6-14.5,18.5-15.3,20.8-15.6c12.7-1.5,16.6,9.4,34,13,20.7,4.3,27.4-8.5,42-1.7,11.6,5.5,10.8,15.2,24.9,20.4,8.6,3.1,10.2,0,20.4,2.8,13.9,3.8,22.7,12.9,28.3,18.7,8.7,9,9.3,14.4,19.3,31.7,4.4,7.6,11,18.5,20.3,31.1"/>
  <polyline class="cls-2" points="1087.7 456.8 1084.8 461.9 1078.1 471.9 1070.1 484.6 1062.8 505 1062.8 524.2"/>
  <polyline class="cls-2" points="1090.9 468.5 1144.4 433 1151.8 445.5 1147.2 453.4 1141 462.5 1127.9 465.9 1127.4 472.1 1127.9 490.5 1124 504.4 1155.7 518.6 1174.4 535.8 1183.5 555.4 1188.6 572.4 1171 591.7 1148.3 591.7 1131.9 591.7 1114.9 603.1"/>
  <path class="cls-2" d="M922.8,304l-3,25.2,7.9,30,6.2,5.1,3.4,11.3,2.8,15.9,4,18.1v14.7l6.9,18.7,9.1,6.8,9.6,14.7,13.6,13,5.1,18.7v23.2h-5.1v21l1.7,12.2-4.5,7.7,10.2,21-3.4,17-1.7,21.5v22.1l1.1,28.6c-3.3,8.6-6.3,18-9.1,28.1-1,3.9-2,7.6-2.8,11.3"/>
  <polyline class="cls-1" points="817.3 364.4 809.3 361 804.2 347.4 792.9 335.5 792.9 319.6 776.4 311.1 761.7 300.3 744.7 284"/>
  <polyline class="cls-2" points="1001.5 640.5 1001.5 661.4 995.8 685.3 998.7 711.3 998.7 720.4 1004.3 731.7 1004.3 744.2 1019.7 758.4 1033.8 779.4 1029.9 791.8"/>
  <polyline class="cls-3" points="864.3 588.3 851.8 613.3 794.6 652.9 764 687.5 766.4 696.6 733.9 747.1 704.4 795.5"/>
  <polyline class="cls-1" points="764 687.5 748.7 697.2 733.4 710.2 718 719.8 704.4 724.9 693.1 742 684 754.4 674.4 764.1 663.6 779.4 651.1 795.5"/>
  <polyline class="cls-1" points="632 738.6 657.4 752.2 674.4 764.1 680.6 779.9"/>
  <polyline class="cls-1" points="975.1 712.5 1007 758.4 1033.8 795.5"/>
  <polyline class="cls-1" points="959.7 640.5 964.1 652.9 961.9 682.4 951.1 702.8 944.8 732.3 951.1 769.2 960.2 795.5"/>
  <polyline class="cls-1" points="944.8 732.3 970.9 748.2 1019.7 758.4"/>
  <polyline class="cls-1" points="1144.4 433 1172.2 414.8 1216.9 365.5 1287.5 292.4"/>
</svg>